<svg xmlns="http://www.w3.org/2000/svg" xmlns:xlink="http://www.w3.org/1999/xlink" width="500" zoomAndPan="magnify" viewBox="0 0 375 374.999991" height="500" preserveAspectRatio="xMidYMid meet" version="1.0"><defs><g/><clipPath id="3f5befa1f3"><path d="M 58.445312 37.5 L 316.445312 37.5 L 316.445312 303.75 L 58.445312 303.75 Z M 58.445312 37.5 " clip-rule="nonzero"/></clipPath></defs><g fill="#ff914d" fill-opacity="1"><g transform="translate(-14.711743, 382.68555)"><g><path d="M 342.847656 -48.035156 L 249.78125 -196.339844 L 353.054688 -357.257812 C 371.667969 -386.078125 360.859375 -405.292969 327.234375 -405.292969 L 290.007812 -405.292969 C 278 -405.292969 265.992188 -398.6875 259.386719 -388.480469 L 193.339844 -285.804688 L 129.09375 -388.480469 C 122.488281 -398.6875 110.480469 -405.292969 98.472656 -405.292969 L 62.445312 -405.292969 C 28.21875 -405.292969 18.011719 -386.078125 35.425781 -357.859375 L 136.296875 -196.339844 L 41.429688 -47.433594 C 22.816406 -19.214844 33.625 0 67.25 0 L 103.875 0 C 115.882812 0 127.890625 -6.605469 134.496094 -16.210938 L 193.339844 -107.476562 L 249.179688 -16.8125 C 255.785156 -6.605469 267.792969 0 279.800781 0 L 316.429688 0 C 350.050781 0 360.859375 -19.214844 342.847656 -48.035156 Z M 342.847656 -48.035156 "/></g></g></g><g fill="#ff914d" fill-opacity="1"><g transform="translate(58.445069, 382.68555)"><g><path d="M 238.972656 -309.824219 L 102.675781 -309.824219 L 102.675781 -249.179688 L 238.972656 -249.179688 C 260.589844 -249.179688 275 -234.769531 275 -213.152344 L 275 -192.738281 C 275 -171.125 260.589844 -156.714844 238.972656 -156.714844 L 102.675781 -156.714844 L 102.675781 -36.027344 C 102.675781 -14.410156 88.261719 0 66.648438 0 L 42.03125 0 C 20.414062 0 6.003906 -14.410156 6.003906 -36.027344 L 6.003906 -365.0625 C 6.003906 -386.679688 20.414062 -401.089844 42.03125 -401.089844 L 238.972656 -402.289062 C 260.589844 -402.289062 275 -387.878906 275 -366.265625 L 275 -345.847656 C 275 -324.234375 260.589844 -309.824219 238.972656 -309.824219 Z M 238.972656 -309.824219 "/></g></g></g><g fill="#ff914d" fill-opacity="1"><g transform="translate(-37.499993, 382.68555)"><g><path d="M 215.554688 -93.066406 C 231.167969 -93.066406 245.578125 -96.070312 259.386719 -101.472656 C 273.195312 -106.878906 285.207031 -114.683594 295.414062 -124.890625 C 305.621094 -135.097656 314.027344 -146.503906 320.03125 -159.714844 C 325.433594 -172.324219 328.4375 -186.734375 328.4375 -201.746094 C 328.4375 -216.757812 325.433594 -230.566406 320.03125 -243.777344 C 314.027344 -256.984375 305.621094 -268.394531 295.414062 -278.601562 C 285.207031 -288.207031 273.195312 -296.011719 259.386719 -301.417969 C 245.578125 -306.820312 231.167969 -309.824219 215.554688 -309.824219 C 199.945312 -309.824219 185.535156 -306.820312 171.722656 -301.417969 C 157.914062 -296.011719 145.90625 -288.207031 135.699219 -278.601562 C 125.492188 -268.394531 117.085938 -256.984375 111.082031 -243.777344 C 105.074219 -230.566406 102.074219 -216.757812 102.074219 -201.746094 C 102.074219 -186.734375 105.074219 -172.324219 111.082031 -159.714844 C 117.085938 -146.503906 125.492188 -135.097656 135.699219 -124.890625 C 145.90625 -114.683594 157.914062 -106.878906 171.722656 -101.472656 C 185.535156 -96.070312 199.945312 -93.066406 215.554688 -93.066406 Z M 215.554688 -402.890625 C 244.375 -402.890625 271.394531 -397.488281 297.214844 -387.28125 C 322.433594 -376.472656 344.648438 -362.0625 363.863281 -344.046875 C 382.476562 -325.433594 397.488281 -304.417969 408.894531 -279.800781 C 419.703125 -255.183594 425.105469 -229.367188 425.105469 -201.746094 C 425.105469 -173.523438 419.703125 -147.707031 408.894531 -123.089844 C 397.488281 -98.472656 382.476562 -77.457031 363.863281 -59.441406 C 344.648438 -41.429688 322.433594 -27.019531 297.214844 -16.8125 C 271.394531 -6.003906 244.375 -0.601562 215.554688 -0.601562 C 186.132812 -0.601562 159.113281 -6.003906 133.898438 -16.8125 C 108.078125 -27.019531 85.863281 -41.429688 67.25 -59.441406 C 48.636719 -77.457031 33.625 -98.472656 22.816406 -123.089844 C 11.410156 -147.707031 6.003906 -173.523438 6.003906 -201.746094 C 6.003906 -229.367188 11.410156 -255.183594 22.816406 -279.800781 C 33.625 -304.417969 48.636719 -325.433594 67.25 -344.046875 C 85.863281 -362.0625 108.078125 -376.472656 133.898438 -387.28125 C 159.113281 -397.488281 186.132812 -402.890625 215.554688 -402.890625 Z M 215.554688 -402.890625 "/></g></g></g><g fill="#ff914d" fill-opacity="1"><g transform="translate(14.399024, 382.68555)"><g><path d="M 343.449219 -357.257812 L 249.78125 -209.550781 L 353.054688 -48.035156 C 371.667969 -19.214844 360.859375 0 326.636719 0 L 289.410156 0 C 277.398438 0 265.390625 -6.605469 258.785156 -16.8125 L 193.941406 -118.886719 L 129.695312 -16.8125 C 123.089844 -6.605469 111.082031 0 99.070312 0 L 62.445312 0 C 28.820312 0 18.011719 -19.214844 36.027344 -48.035156 L 136.898438 -208.351562 L 41.429688 -357.859375 C 22.816406 -386.078125 33.625 -405.292969 67.25 -405.292969 L 104.476562 -405.292969 C 115.882812 -405.292969 127.890625 -398.6875 134.496094 -389.082031 L 193.941406 -297.816406 L 249.179688 -387.878906 C 255.785156 -398.6875 267.792969 -405.292969 280.402344 -405.292969 L 317.027344 -405.292969 C 350.652344 -405.292969 361.460938 -386.078125 343.449219 -357.257812 Z M 343.449219 -357.257812 "/></g></g></g><g clip-path="url(#3f5befa1f3)"><path fill="#606060" d="M 288.960938 227.417969 C 297.640625 231.039062 306.320312 234.679688 316.332031 238.875 C 310.828125 226.070312 306.304688 213.683594 300.300781 202.070312 C 294.222656 190.339844 286.683594 179.363281 279.65625 167.855469 C 282.851562 165.441406 286.90625 162.765625 290.496094 159.554688 C 303.835938 147.652344 309.117188 131.863281 311.328125 114.765625 C 314.296875 91.867188 311.742188 69.75 301.457031 48.820312 C 300.195312 46.246094 298.695312 43.796875 297.261719 41.332031 C 296.675781 40.328125 295.949219 39.398438 294.671875 37.5 C 287.578125 54.355469 279.15625 69.59375 264.660156 82.121094 C 264.660156 78.839844 264.660156 76.824219 264.660156 73.941406 C 252.90625 82.066406 250.285156 95.351562 242.84375 105.445312 C 255.425781 101.324219 266.609375 94.886719 277.257812 86.605469 C 276.328125 88.140625 275.566406 89.832031 274.429688 91.210938 C 267.25 99.925781 260.277344 108.8125 252.683594 117.144531 C 244.777344 125.824219 241.378906 135.28125 244.949219 146.769531 C 245.125 147.339844 244.96875 148.03125 244.96875 149.460938 C 236.304688 143.390625 235.425781 134.691406 234.542969 125.117188 C 228.039062 128.328125 223.914062 133.3125 221.238281 139.179688 C 218.613281 144.90625 217.042969 151.136719 214.78125 157.8125 C 213.710938 154.035156 212.746094 150.617188 211.78125 147.253906 C 207.136719 151.652344 204.753906 161.625 207.550781 169.582031 C 209.363281 174.707031 212.539062 179.398438 215.371094 184.109375 C 217.269531 187.265625 219.925781 189.992188 221.6875 193.21875 C 224.050781 197.53125 224.066406 202.089844 220.511719 205.902344 C 212.660156 214.320312 211.78125 224.363281 213.367188 236.5625 C 222.136719 219.050781 238.597656 212.75 254.011719 204.140625 C 253.132812 206.644531 252.804688 209.558594 251.25 211.542969 C 248.59375 214.941406 245.453125 218.132812 242.015625 220.738281 C 228.105469 231.300781 219.046875 243.773438 216.285156 256.886719 C 229.78125 243.671875 236.683594 241.582031 245.484375 247.570312 C 238.359375 253.917969 230.902344 260.078125 224.015625 266.824219 C 218.734375 271.984375 213.953125 277.679688 209.019531 283.199219 C 209 282.925781 208.984375 282.628906 208.964844 282.355469 C 208.292969 283.457031 207.898438 284.253906 207.515625 284.875 C 207.328125 285.082031 207.15625 285.289062 206.964844 285.496094 C 204.152344 288.582031 201.40625 291.015625 198.714844 292.8125 C 198.523438 292.929688 198.351562 293.050781 198.164062 293.171875 C 198.09375 293.226562 198.007812 293.257812 197.9375 293.3125 C 194.746094 295.261719 191.640625 296.347656 188.53125 296.554688 C 188.429688 296.554688 188.324219 296.570312 188.222656 296.570312 C 187.964844 296.589844 187.703125 296.589844 187.445312 296.589844 C 187.1875 296.589844 186.925781 296.589844 186.667969 296.570312 C 186.566406 296.570312 186.460938 296.570312 186.359375 296.554688 C 183.25 296.347656 180.128906 295.261719 176.953125 293.3125 C 176.882812 293.257812 176.796875 293.226562 176.726562 293.171875 C 176.539062 293.050781 176.363281 292.929688 176.175781 292.8125 C 173.464844 291.015625 170.722656 288.582031 167.925781 285.496094 C 167.734375 285.289062 167.5625 285.082031 167.375 284.875 C 166.992188 284.253906 166.597656 283.460938 165.921875 282.355469 C 165.890625 282.648438 165.890625 282.925781 165.871094 283.199219 C 160.9375 277.679688 156.15625 272.003906 150.875 266.824219 C 143.988281 260.078125 136.53125 253.917969 129.40625 247.570312 C 138.207031 241.566406 145.109375 243.671875 158.605469 256.886719 C 155.84375 243.773438 146.785156 231.28125 132.875 220.738281 C 129.4375 218.132812 126.296875 214.941406 123.640625 211.542969 C 122.085938 209.578125 121.757812 206.644531 120.878906 204.140625 C 136.289062 212.75 152.753906 219.050781 161.523438 236.5625 C 163.09375 224.378906 162.214844 214.320312 154.378906 205.902344 C 150.824219 202.089844 150.839844 197.550781 153.203125 193.21875 C 154.964844 189.992188 157.621094 187.265625 159.519531 184.109375 C 162.351562 179.382812 165.527344 174.707031 167.339844 169.582031 C 170.136719 161.625 167.753906 151.652344 163.109375 147.253906 C 162.160156 150.636719 161.175781 154.050781 160.109375 157.8125 C 157.847656 151.136719 156.277344 144.90625 153.652344 139.179688 C 150.976562 133.3125 146.851562 128.328125 140.347656 125.117188 C 139.464844 134.691406 138.585938 143.390625 129.921875 149.460938 C 129.921875 148.03125 129.765625 147.339844 129.941406 146.769531 C 133.511719 135.28125 130.128906 125.824219 122.207031 117.144531 C 114.613281 108.8125 107.640625 99.910156 100.460938 91.210938 C 99.324219 89.832031 98.5625 88.160156 97.632812 86.605469 C 108.296875 94.886719 119.464844 101.339844 132.046875 105.445312 C 124.625 95.351562 121.984375 82.085938 110.230469 73.941406 C 110.230469 76.824219 110.230469 78.839844 110.230469 82.121094 C 95.714844 69.574219 87.292969 54.339844 80.21875 37.5 C 78.921875 39.398438 78.199219 40.328125 77.628906 41.332031 C 76.195312 43.796875 74.695312 46.246094 73.433594 48.820312 C 63.148438 69.75 60.59375 91.867188 63.5625 114.765625 C 65.789062 131.863281 71.070312 147.632812 84.394531 159.554688 C 87.984375 162.765625 92.039062 165.441406 95.234375 167.855469 C 88.207031 179.363281 80.667969 190.339844 74.589844 202.070312 C 68.585938 213.683594 64.0625 226.070312 58.558594 238.875 C 68.566406 234.679688 77.25 231.058594 85.929688 227.417969 C 86.449219 228.054688 86.964844 228.675781 87.484375 229.316406 C 80.164062 242.03125 72.832031 254.746094 64.960938 268.429688 C 72.847656 266.066406 79.785156 263.445312 86.964844 261.976562 C 94.972656 260.355469 103.273438 258.492188 111.300781 259.007812 C 126.832031 260.027344 138.808594 269.050781 149.753906 279.421875 C 155.863281 285.203125 161.765625 291.257812 168.183594 296.675781 C 173.707031 301.335938 180.214844 303.75 187.445312 303.714844 C 194.675781 303.75 201.183594 301.335938 206.707031 296.675781 C 213.125 291.257812 219.027344 285.203125 225.136719 279.421875 C 236.078125 269.050781 248.058594 260.027344 263.589844 259.007812 C 271.613281 258.492188 279.917969 260.339844 287.925781 261.976562 C 295.105469 263.445312 302.042969 266.066406 309.929688 268.429688 C 302.058594 254.746094 294.722656 242.03125 287.40625 229.316406 C 287.925781 228.675781 288.441406 228.054688 288.960938 227.417969 Z M 96.941406 140.699219 C 93.644531 139.335938 90.347656 137.972656 86.257812 136.296875 C 90.519531 144.804688 96.335938 150.757812 103.308594 156.484375 C 100.945312 155.796875 98.441406 155.433594 96.25 154.378906 C 84.894531 148.910156 79.078125 138.9375 75.953125 127.429688 C 71.121094 109.605469 70.933594 91.574219 75.316406 73.5625 C 75.59375 72.421875 76.007812 71.316406 76.4375 70.230469 C 76.609375 69.800781 77.042969 69.453125 78.128906 68.109375 C 82.117188 92.160156 90.675781 113.4375 106.847656 131.242188 C 97.199219 129.085938 91.882812 121.804688 85.878906 113.917969 C 86.984375 124.53125 91.230469 132.535156 96.941406 140.699219 Z M 271.597656 156.46875 C 278.570312 150.757812 284.386719 144.785156 288.648438 136.28125 C 284.558594 137.972656 281.261719 139.335938 277.964844 140.679688 C 283.679688 132.535156 287.925781 124.511719 289.027344 113.882812 C 283.039062 121.769531 277.707031 129.050781 268.058594 131.207031 C 284.230469 113.402344 292.792969 92.144531 296.777344 68.074219 C 297.867188 69.421875 298.28125 69.765625 298.46875 70.195312 C 298.902344 71.285156 299.316406 72.386719 299.589844 73.527344 C 303.976562 91.539062 303.785156 109.589844 298.953125 127.394531 C 295.828125 138.886719 290.011719 148.859375 278.65625 154.34375 C 276.464844 155.414062 273.945312 155.777344 271.597656 156.46875 Z M 271.597656 156.46875 " fill-opacity="1" fill-rule="nonzero"/></g><path fill="#606060" d="M 183.75 280.628906 C 184.371094 280.871094 185.0625 281.042969 185.789062 281.148438 C 185.875 281.164062 185.945312 281.164062 186.03125 281.179688 C 186.203125 281.199219 186.375 281.214844 186.546875 281.234375 C 186.6875 281.25 186.824219 281.25 186.980469 281.269531 C 187.132812 281.269531 187.273438 281.269531 187.429688 281.269531 C 187.582031 281.269531 187.722656 281.269531 187.875 281.269531 C 188.015625 281.269531 188.152344 281.25 188.308594 281.234375 C 188.480469 281.214844 188.652344 281.199219 188.824219 281.179688 C 188.910156 281.164062 188.980469 281.164062 189.066406 281.148438 C 189.792969 281.042969 190.484375 280.871094 191.105469 280.628906 C 198.730469 277.660156 204.1875 269 204.117188 260.804688 C 204.082031 256.507812 203.652344 255.214844 201.027344 254.867188 C 200.320312 254.679688 199.472656 254.628906 198.4375 254.660156 C 196.660156 254.746094 194.867188 254.800781 193.089844 254.816406 C 193.003906 254.816406 192.898438 254.816406 192.8125 254.816406 C 192.363281 254.816406 191.914062 254.816406 191.464844 254.835938 C 190.121094 254.851562 188.773438 254.851562 187.429688 254.867188 C 186.082031 254.867188 184.734375 254.851562 183.390625 254.835938 C 182.941406 254.835938 182.492188 254.835938 182.042969 254.816406 C 181.957031 254.816406 181.851562 254.816406 181.765625 254.816406 C 179.988281 254.78125 178.195312 254.730469 176.417969 254.660156 C 175.398438 254.609375 174.535156 254.679688 173.828125 254.867188 C 171.1875 255.214844 170.773438 256.523438 170.738281 260.804688 C 170.667969 269 176.140625 277.679688 183.75 280.628906 Z M 183.75 280.628906 " fill-opacity="1" fill-rule="nonzero"/></svg>